<svg id="icon_maracas" xmlns="http://www.w3.org/2000/svg" viewBox="0 0 94.37 94.37"><defs><style>.cls-1,.cls-3{fill:#231f20;}.cls-1{stroke:#77ba9d;stroke-width:2px;}.cls-1,.cls-2,.cls-3{stroke-miterlimit:10;}.cls-2{fill:none;stroke-width:1.45px;}.cls-2,.cls-3{stroke:#fff;}.cls-3{stroke-width:1.15px;}</style></defs><rect id="frame" class="cls-1" x="1" y="1" width="92.37" height="92.37" rx="22.27"/><path id="outline_maracas" class="cls-2" d="M65.13,47.53c-2.87,6.52-8.52,9.29-12.62,6.2s-5.09-10.9-2.22-17.42S58.82,27,62.92,30.12,68,41,65.13,47.53Zm1-2.92A19,19,0,0,0,52.93,32.13m12.2,15.4-3.65.69L64,42.52,58.36,44l2.23-6L55,40.86c-.26.2-.67,0-.65-.27l.93-6-5.42,4.05s9.62,4.59,12.4,12.95m-12.13-.84-10,14.11a4.92,4.92,0,0,0-.27,4.33,2.2,2.2,0,0,0,3.74,0c2-2.42,10-14.78,10-14.78M26.39,29c-4.11,4.23-4,12.3.25,18s11,6.92,15.12,2.68,4-12.3-.25-18S30.5,24.71,26.39,29Zm13.12.47c-10,1.22-15.3,12.87-15.3,12.87M41.62,32.21l-.85,4.52-5.58-4,.8,6.09-5.7-2.45,1.57,6.07L27,40.83l1.52,6.52s6.61-9.16,14.52-10"/><path id="left_maracahandle" class="cls-3" d="M38.57,52.18l7.57,16.74s1.33,2.39,3.45,1.7A3.71,3.71,0,0,0,51,65.86C49.82,62.5,43,49,43,49A4.66,4.66,0,0,1,38.57,52.18Z"/></svg>