<svg id="icon_kick" data-name="icon kick" xmlns="http://www.w3.org/2000/svg" viewBox="0 0 94.37 94.37"><defs><style>.cls-1{fill:#231f20;stroke:#f58231;}.cls-1,.cls-2,.cls-3{stroke-miterlimit:10;stroke-width:2px;}.cls-2,.cls-3{fill:none;stroke:#fff;}.cls-3{stroke-linecap:round;}</style></defs><rect id="frame" class="cls-1" x="1" y="1" width="92.37" height="92.37" rx="22.27"/><g id="Layer_6" data-name="Layer 6"><circle class="cls-2" cx="48.57" cy="52.88" r="14.93"/><circle class="cls-2" cx="49.06" cy="52.88" r="22.09"/><path class="cls-2" d="M58.19,23.48H39a2.62,2.62,0,0,1-2.61-2.61h0A2.61,2.61,0,0,1,39,18.26H58.19a2.61,2.61,0,0,1,2.61,2.61h0A2.62,2.62,0,0,1,58.19,23.48Z"/><line class="cls-2" x1="48.57" y1="14.23" x2="48.57" y2="18.26"/><line class="cls-2" x1="48.57" y1="23.48" x2="48.57" y2="30.8"/><path class="cls-3" d="M69.88,30.8H20.19A2.17,2.17,0,0,0,18,33v2H36.16"/><path class="cls-3" d="M75,30.8h2.77A1.22,1.22,0,0,1,79,32v3H62"/><line class="cls-2" x1="20.73" y1="44.06" x2="20.73" y2="34.96"/><line class="cls-2" x1="76.58" y1="44.06" x2="76.58" y2="34.96"/><path class="cls-2" d="M69.58,44.72h7.5A1.9,1.9,0,0,1,79,46.61v1.26a1.78,1.78,0,0,1-1.78,1.77H70.91"/><path class="cls-2" d="M28.54,44.72H20.31A2.29,2.29,0,0,0,18,47v.85a1.78,1.78,0,0,0,1.77,1.78h7.42"/><line class="cls-2" x1="34.35" y1="69.36" x2="31.9" y2="74.97"/><line class="cls-3" x1="28.92" y1="74.97" x2="34.78" y2="74.97"/><line class="cls-3" x1="63.51" y1="69.59" x2="65.22" y2="74.14"/><line class="cls-3" x1="67.99" y1="74.97" x2="62.45" y2="74.97"/></g></svg>