<svg id="icon_kick" data-name="icon kick" xmlns="http://www.w3.org/2000/svg" viewBox="0 0 94.37 94.37"><defs><style>.cls-1{fill:#231f20;stroke:#f58231;}.cls-1,.cls-2{stroke-miterlimit:10;stroke-width:2px;}.cls-2{fill:none;stroke:#fff;}</style></defs><rect id="frame" class="cls-1" x="1" y="1" width="92.37" height="92.37" rx="22.27"/><g id="Layer_2" data-name="Layer 2"><path class="cls-2" d="M48.88,50.83a5,5,0,1,1-5-5,4.81,4.81,0,0,1,1.27.17A5,5,0,0,1,48.88,50.83Z"/><line class="cls-2" x1="66.21" y1="24.56" x2="45.17" y2="46.02"/><line class="cls-2" x1="70.24" y1="28.45" x2="48.71" y2="49.57"/><rect class="cls-2" x="67.83" y="16.43" width="9.06" height="11.88" rx="2.03" transform="translate(37.01 -44.61) rotate(45)"/><line class="cls-2" x1="68.82" y1="16.28" x2="70.4" y2="17.93"/><line class="cls-2" x1="67.08" y1="21.24" x2="65.49" y2="19.51"/><line class="cls-2" x1="77.07" y1="24.07" x2="78.84" y2="26.11"/><line class="cls-2" x1="73.57" y1="27.56" x2="75.45" y2="29.54"/><rect class="cls-2" x="25.66" y="60.92" width="11.9" height="4.39" rx="1.05" transform="translate(53.89 -3.87) rotate(45)"/><path class="cls-2" d="M51.25,39.83S46.05,32.54,40,38.5s-7.22,5.61-14.64,8.14-8.06,11.94-8.06,11.94S15.82,65.07,23.45,72s13.71,5.65,13.71,5.65,10.88-1.57,12.55-12c0,0,1-6,4.92-8.66a9.07,9.07,0,0,0,4.18-6.1A7.38,7.38,0,0,0,55,43.39"/></g></svg>