<?xml version="1.0" encoding="utf-8"?>
<!-- Generator: Adobe Illustrator 26.0.3, SVG Export Plug-In . SVG Version: 6.00 Build 0)  -->
<svg version="1.1" id="icon_kick" xmlns="http://www.w3.org/2000/svg" xmlns:xlink="http://www.w3.org/1999/xlink" x="0px" y="0px"
	 viewBox="0 0 94.4 94.4" style="enable-background:new 0 0 94.4 94.4;" xml:space="preserve">
<style type="text/css">
	.st0{fill:#231F20;stroke:#F58231;stroke-width:2;stroke-miterlimit:10;}
	.st1{display:none;}
	.st2{display:none;fill:none;stroke:#FFFFFF;stroke-width:2.52;stroke-miterlimit:10;}
	.st3{display:inline;}
	.st4{fill:none;stroke:#FFFFFF;stroke-width:2;stroke-miterlimit:10;}
	.st5{display:inline;fill:none;stroke:#FFFFFF;stroke-width:2;stroke-miterlimit:10;}
	.st6{display:inline;fill:none;stroke:#FFFFFF;stroke-width:2;stroke-linecap:round;stroke-miterlimit:10;}
	.st7{fill:none;stroke:#FFFFFF;stroke-width:2;stroke-linecap:round;stroke-miterlimit:10;}
</style>
<path id="frame" class="st0" d="M23.3,1h47.8c12.3,0,22.3,10,22.3,22.3v47.8c0,12.3-10,22.3-22.3,22.3H23.3C11,93.4,1,83.4,1,71.1
	V23.3C1,11,11,1,23.3,1z"/>
<g id="Layer_3" class="st1">
	
		<image style="display:inline;overflow:visible;" width="258" height="228" xlink:href="../../../../../Desktop/Screen Shot 2022-03-10 at 8.19.23 PM.png"  transform="matrix(0.4767 0 0 0.4767 -197.4984 59.4755)">
	</image>
	
		<image style="display:inline;overflow:visible;" width="350" height="336" xlink:href="../../../../../Desktop/Screen Shot 2022-03-10 at 8.49.09 PM.png"  transform="matrix(0.264 0 0 0.264 -27.6978 123.8125)">
	</image>
	
		<image style="display:inline;overflow:visible;" width="254" height="198" xlink:href="../../../../../Desktop/Screen Shot 2022-03-10 at 8.49.55 PM.png"  transform="matrix(0.4243 0 0 0.4243 106.1421 12.3407)">
	</image>
	
		<image style="display:inline;overflow:visible;" width="242" height="186" xlink:href="../../../../../Desktop/Screen Shot 2022-03-10 at 8.51.00 PM.png"  transform="matrix(0.5 0 0 0.5 -11.6186 0.685)">
	</image>
</g>
<path id="bass" class="st2" d="M70.2,45.1c0,12.5-10.1,22.6-22.6,22.6S24.9,57.6,24.9,45.1S35,22.5,47.5,22.5
	C60,22.5,70.1,32.6,70.2,45.1C70.2,45.1,70.2,45.1,70.2,45.1z M51.5,52v-4.6c0-1.8-1.5-3.3-3.3-3.3h-1.3c-1.8,0-3.3,1.5-3.3,3.3V52
	c0,1.8,1.5,3.3,3.3,3.3h1.3C50,55.3,51.5,53.8,51.5,52z M47.5,55.3v6.9l-2.4,1.3c0,0-1.1,0.7-1.1,1.5v3.1c0,0.2,0.2,1.3,1.8,1.4
	c1.4,0.1,2.8,0.1,4.1,0c0,0,1.4-0.1,1.4-1.8s0-3.1,0-3.1s0-0.4-1.2-1.1s-2.5-1.3-2.5-1.3 M28.9,58l-4.5,10.9h1.7 M27.6,60.9
	c0,0,1.1,1,2.6-1.1 M69.5,68.8h1.6l-4.3-11.4 M65.5,59.3c1.5,2.2,2.5,1.1,2.5,1.1 M31.6,29c-0.8-1.7-1.1-2.2-2.6-0.5s1,2.2,1,2.2
	 M65.1,30.8c3.4-1.2,1.6-2.2,0.4-3.4s-1.9,1.7-1.9,1.7 M70.1,47.2c2.4,0.3,2.2-0.9,2.2-0.9v-2.2c0-1.7-2.2-1-2.2-1 M24.9,43
	c0,0-1.9-0.3-1.8,1.2c0.1,0.8,0.1,1.6,0,2.5c0,0-0.2,1.2,1.8,0.7"/>
<g id="acoustic" class="st1">
	<g class="st3">
		<path class="st4" d="M48.9,50.8c0,2.7-2.2,5-5,5c-2.7,0-5-2.2-5-5c0-2.7,2.2-5,5-5c0.4,0,0.9,0.1,1.3,0.2
			C47.3,46.6,48.9,48.5,48.9,50.8z"/>
		<line class="st4" x1="66.2" y1="24.6" x2="45.2" y2="46"/>
		<line class="st4" x1="70.2" y1="28.4" x2="48.7" y2="49.6"/>
		<path class="st4" d="M69.9,28.3l-3.5-3.5c-0.8-0.8-0.8-2.1,0-2.9l5.5-5.5c0.8-0.8,2.1-0.8,2.9,0l3.5,3.5c0.8,0.8,0.8,2.1,0,2.9
			l-5.5,5.5C72,29.1,70.7,29.1,69.9,28.3z"/>
		<line class="st4" x1="68.8" y1="16.3" x2="70.4" y2="17.9"/>
		<line class="st4" x1="67.1" y1="21.2" x2="65.5" y2="19.5"/>
		<line class="st4" x1="77.1" y1="24.1" x2="78.8" y2="26.1"/>
		<line class="st4" x1="73.6" y1="27.6" x2="75.4" y2="29.5"/>
		<path class="st4" d="M33.5,68.1l-6.9-6.9c-0.4-0.4-0.4-1.1,0-1.5l1.6-1.6c0.4-0.4,1.1-0.4,1.5,0l6.9,6.9c0.4,0.4,0.4,1.1,0,1.5
			L35,68.1C34.6,68.5,33.9,68.5,33.5,68.1z"/>
		<path class="st4" d="M51.2,39.8c0,0-5.2-7.3-11.3-1.3s-7.2,5.6-14.6,8.1s-8.1,11.9-8.1,11.9s-1.5,6.5,6.2,13.4
			c7.6,6.9,13.7,5.6,13.7,5.6s10.9-1.6,12.6-12c0,0,1-6,4.9-8.7c3.9-2.6,4.2-6.1,4.2-6.1s0.9-4.8-3.8-7.4"/>
	</g>
</g>
<g id="electric" class="st1">
	<path class="st5" d="M66,20.1l-1.2,4.3l-22,22.1l3.6,3.5l22.3-22l11.4-8.4c0.7-0.5,0.7-1.5,0-2L79,16.7L70.8,18l-2.9,0.5
		C67,18.6,66.2,19.2,66,20.1z"/>
	<line class="st5" x1="70.3" y1="15" x2="70.8" y2="18"/>
	<line class="st5" x1="75.8" y1="14.5" x2="75.8" y2="17.2"/>
	<line class="st5" x1="64.8" y1="24.3" x2="68.7" y2="28"/>
	<path class="st5" d="M52.2,37.1c0,0-7.2-7.1-13.2,0c-5.6,6.5-1.2,7.2-9.8,8.8c-2.6,0.5-5,1.6-7,3.4c-4,3.6-8.4,10.5-0.4,20
		c12.3,14.5,24.1,0,24.1,0s2.1-2.2,2.5-7.8c0,0,0.5-3.9,4.7-5.7c4.1-1.8,4.7-3.5,4.7-3.5s0.8-3-2.7-2.8c-3.5,0.1-3.5-4.4-3.5-4.4"/>
	<line class="st6" x1="37.5" y1="51.8" x2="41" y2="55.4"/>
	<line class="st6" x1="33.3" y1="55.4" x2="36.8" y2="59.2"/>
	<line class="st6" x1="26.2" y1="59.2" x2="31.9" y2="65.1"/>
	<circle class="st5" cx="35.7" cy="68.4" r="0.7"/>
	<circle class="st5" cx="41.2" cy="66.8" r="0.9"/>
</g>
<g id="tamberine" class="st1">
	<circle class="st5" cx="24.5" cy="40.2" r="5.8"/>
	<circle class="st5" cx="24.5" cy="57.9" r="5.8"/>
	<circle class="st5" cx="67.1" cy="57.9" r="5.8"/>
	<circle class="st5" cx="67.1" cy="40.2" r="5.8"/>
	<circle class="st5" cx="54.9" cy="27.8" r="5.8"/>
	<circle class="st5" cx="37.4" cy="27.8" r="5.8"/>
	<path class="st5" d="M59.5,68.1c6.1-4.2,10-11.1,10-18.9c0-12.8-10.6-23.1-23.6-23.1S22.3,36.4,22.3,49.2c0,7.5,3.7,14.2,9.3,18.4
		L59.5,68.1z"/>
</g>
<g id="drum" class="st1">
	<circle class="st5" cx="48.6" cy="52.9" r="14.9"/>
	<circle class="st5" cx="49.1" cy="52.9" r="22.1"/>
	<path class="st5" d="M58.2,23.5H38.9c-1.4,0-2.6-1.2-2.6-2.6v0c0-1.4,1.2-2.6,2.6-2.6h9.6h9.6c1.4,0,2.6,1.2,2.6,2.6v0
		C60.8,22.3,59.6,23.5,58.2,23.5z"/>
	<line class="st5" x1="48.6" y1="14.2" x2="48.6" y2="18.3"/>
	<line class="st5" x1="48.6" y1="23.5" x2="48.6" y2="30.8"/>
	<path class="st6" d="M69.9,30.8H20.2c-1.2,0-2.2,1-2.2,2.2v2h2.7h15.4"/>
	<path class="st6" d="M75,30.8h2.8c0.7,0,1.2,0.5,1.2,1.2V35H62"/>
	<line class="st5" x1="20.7" y1="44.1" x2="20.7" y2="35"/>
	<line class="st5" x1="76.6" y1="44.1" x2="76.6" y2="35"/>
	<path class="st5" d="M69.6,44.7h7.5c1,0,1.9,0.8,1.9,1.9v1.3c0,1-0.8,1.8-1.8,1.8h-6.3"/>
	<path class="st5" d="M28.5,44.7h-8.2c-1.3,0-2.3,1-2.3,2.3v0.8c0,1,0.8,1.8,1.8,1.8h7.4"/>
	<line class="st5" x1="34.4" y1="69.4" x2="31.9" y2="75"/>
	<line class="st6" x1="28.9" y1="75" x2="34.8" y2="75"/>
	<line class="st6" x1="63.5" y1="69.6" x2="65.2" y2="74.1"/>
	<line class="st6" x1="68" y1="75" x2="62.5" y2="75"/>
</g>
<g id="traingle">
	<path class="st7" d="M63,66c-0.9,0-33.2,0-33.2,0s-3.7,0.4,0-5.8S45.5,34,45.5,34s2.7-4.9,6.1,0c3.4,4.9,14.6,25.2,14.6,25.2"/>
	<line class="st7" x1="65.2" y1="31.8" x2="53.6" y2="51.9"/>
	<path class="st7" d="M49.4,60.7l-0.6-0.4c-1-0.6-1.4-1.9-0.8-3l2.4-4.2c0.6-1,1.9-1.4,3-0.8l0.6,0.4c1,0.6,1.4,1.9,0.8,3l-2.4,4.2
		C51.8,60.9,50.5,61.3,49.4,60.7z"/>
	<line class="st7" x1="48.4" y1="31.8" x2="48.3" y2="27.6"/>
	<circle class="st7" cx="48.4" cy="25.3" r="2.3"/>
</g>
</svg>
