<svg id="icon_kick" data-name="icon kick" xmlns="http://www.w3.org/2000/svg" viewBox="0 0 94.37 94.37"><defs><style>.cls-1{fill:#231f20;stroke:#f58231;}.cls-1,.cls-2,.cls-3{stroke-miterlimit:10;stroke-width:2px;}.cls-2,.cls-3{fill:none;stroke:#fff;}.cls-3{stroke-linecap:round;}</style></defs><rect id="frame" class="cls-1" x="1" y="1" width="92.37" height="92.37" rx="22.27"/><g id="Layer_4" data-name="Layer 4"><path class="cls-2" d="M66,20.08l-1.16,4.26-22,22.13L46.47,50,68.73,28,80.1,19.61a1.24,1.24,0,0,0,0-2L79,16.71,70.81,18l-2.94.45A2.3,2.3,0,0,0,66,20.08Z"/><line class="cls-2" x1="70.28" y1="15.03" x2="70.81" y2="17.97"/><line class="cls-2" x1="75.85" y1="14.51" x2="75.85" y2="17.19"/><line class="cls-2" x1="64.85" y1="24.34" x2="68.73" y2="27.97"/><path class="cls-2" d="M52.21,37.06S45.05,30,39,37.06c-5.55,6.46-1.18,7.24-9.83,8.81a14.21,14.21,0,0,0-7,3.42c-4,3.63-8.38,10.49-.36,19.95,12.29,14.5,24.07,0,24.07,0s2.07-2.2,2.45-7.76a7.83,7.83,0,0,1,4.66-5.69c4.14-1.82,4.66-3.5,4.66-3.5s.78-3-2.72-2.84-3.48-4.36-3.48-4.36"/><line class="cls-3" x1="37.47" y1="51.77" x2="41.04" y2="55.4"/><line class="cls-3" x1="33.27" y1="55.4" x2="36.77" y2="59.15"/><line class="cls-3" x1="26.16" y1="59.15" x2="31.85" y2="65.1"/><circle class="cls-2" cx="35.75" cy="68.42" r="0.73"/><circle class="cls-2" cx="41.17" cy="66.78" r="0.91"/></g></svg>