<svg id="Layer_1" data-name="Layer 1" xmlns="http://www.w3.org/2000/svg" viewBox="0 0 94.37 94.37"><defs><style>.cls-1{fill:#231f20;stroke:#f48220;stroke-width:2px;}.cls-1,.cls-2{stroke-miterlimit:10;}.cls-2{fill:none;stroke:#fff;stroke-width:3.86px;}</style></defs><rect id="frame" class="cls-1" x="1" y="1" width="92.37" height="92.37" rx="22.27"/><path id="outline_hi_hat" data-name="outline hi hat" class="cls-2" d="M71.85,34.51c0,4.39-10.43,8-23.29,8s-23.29-3.56-23.29-8,10.42-7.93,23.31-7.93S71.85,30.12,71.85,34.51ZM36.22,42s-24.68,6.84,0,13.47c0,0,19.57,3.36,29-1.18,0,0,18.47-6.83-4.31-12.29ZM48.77,12.81V32.58m-.19,24.05"/><path class="cls-2" d="M36,57s-24.68,6.84,0,13.47c0,0,19.57,3.36,29-1.18,0,0,18.47-6.83-4.31-12.29Z"/><line class="cls-2" x1="48.76" y1="71.66" x2="48.77" y2="80.18"/></svg>