<svg id="icon_snare" xmlns="http://www.w3.org/2000/svg" viewBox="0 0 94.37 94.37"><defs><style>.cls-1{fill:#231f20;stroke:#77ba9d;stroke-width:2px;}.cls-1,.cls-2{stroke-miterlimit:10;}.cls-2{fill:none;stroke:#fff;stroke-width:1.8px;}</style></defs><rect id="frame" class="cls-1" x="1" y="1" width="92.37" height="92.37" rx="22.27"/><path id="outline_drum_snare" data-name="outline_drum snare" class="cls-2" d="M67,41.88c0,4-8.85,7.18-19.76,7.18s-19.77-3.21-19.77-7.18,8.85-7.17,19.77-7.17S67,37.92,67,41.88Zm-39.53,0V65.52s4.54,5.6,21,5.75S67,65.68,67,65.68V41.88M27.42,51.39s9.3,6,19.77,6.24S67,51.39,67,51.39M32.2,49.62v9.21m15-6.21V62M61.72,49.62v9.21m-17.56-21a2.79,2.79,0,1,0,2.57,2.78A2.68,2.68,0,0,0,44.16,37.85Zm5.6,1.82a2.79,2.79,0,1,0,2.56,2.79A2.69,2.69,0,0,0,49.76,39.67ZM27.42,22.16,41.59,37.85m10.1,2.78L66.36,23.86"/></svg>