<svg id="icon_kick" xmlns="http://www.w3.org/2000/svg" viewBox="0 0 94.37 94.37"><defs><style>.cls-1{fill:#231f20;stroke:#77ba9d;stroke-width:2px;}.cls-1,.cls-2{stroke-miterlimit:10;}.cls-2{fill:none;stroke:#fff;stroke-width:2.52px;}</style></defs><rect id="frame" class="cls-1" x="1" y="1" width="92.37" height="92.37" rx="22.27"/><path class="cls-2" d="M70.15,45.14A22.64,22.64,0,1,1,47.51,22.5,22.63,22.63,0,0,1,70.15,45.14ZM51.49,52V47.42a3.33,3.33,0,0,0-3.33-3.33h-1.3a3.33,3.33,0,0,0-3.32,3.33V52a3.32,3.32,0,0,0,3.32,3.32h1.3A3.33,3.33,0,0,0,51.49,52Zm-4,3.32v6.94l-2.4,1.32S44,64.23,44,65.12v3.07c-.05.23.21,1.35,1.78,1.4a39.71,39.71,0,0,0,4.14,0s1.41-.06,1.37-1.81,0-3.12,0-3.12,0-.42-1.19-1.09-2.55-1.34-2.55-1.34M28.85,58l-4.5,10.88h1.71m1.58-7.95s1.08,1,2.62-1.08m39.24,9h1.62L66.83,57.42m-1.34,1.93C67,61.57,68,60.49,68,60.49M31.6,29c-.78-1.69-1.11-2.24-2.65-.45s1,2.25,1,2.25m35.1,0c3.4-1.22,1.55-2.25.43-3.36s-1.94,1.68-1.94,1.68m6.51,18.06c2.43.35,2.16-.9,2.16-.9V44.09c0-1.66-2.16-1-2.16-1m-45.18-.11s-1.91-.29-1.8,1.15a13.47,13.47,0,0,1,0,2.45s-.23,1.15,1.8.74"/></svg>