<svg id="piano_icon" xmlns="http://www.w3.org/2000/svg" viewBox="0 0 94.37 94.37"><defs><style>.cls-1{fill:#231f20;stroke:#77ba9d;stroke-width:2px;}.cls-1,.cls-2,.cls-3{stroke-miterlimit:10;}.cls-2,.cls-3{fill:none;stroke:#fff;}.cls-2{stroke-width:1.84px;}.cls-3{stroke-width:0.5px;}</style></defs><rect id="frame" class="cls-1" x="1" y="1" width="92.37" height="92.37" rx="22.27"/><path id="outline_piano" class="cls-2" d="M68.2,43.28V69.12H28.46v-41s1.35-9.56,10.31-9.85,11.81,6.43,11.81,6.43-1.2,9.13,6.57,9.13S68.2,36.72,68.2,43.28ZM28.46,59.13H68.2m-34.13,0v10m3.92-10v10m4.38-10v10m4.14-10v10m4-10v10M54.7,59.2v10m4.2-9.37v10m4-9.95v10"/><path id="piano_keys" class="cls-3" d="M35.29,59.4H33v5.52h2.28Zm3.9,0H36.91v5.52h2.28Zm4.28,0H41.2V64.9h2.27Zm4.18.11H45.38V65h2.27Zm3.89-.06H49.26V65h2.28Zm4.3,0H53.57V65h2.27Zm4.3,0H57.87V65h2.27Zm3.85,0H61.72V65H64Z"/></svg>